Coordinates
version=1
nRows=11
nColumns=63
inDegrees=yes

Units are S.I. units (second, meters, Newtons, ...)
If the header above contains a line with 'inDegrees', this indicates whether rotational values are in degrees (yes) or radians (no).

endheader
time	pelvis_tilt	pelvis_list	pelvis_rotation	pelvis_tx	pelvis_ty	pelvis_tz	hip_flexion_r	hip_adduction_r	hip_rotation_r	knee_angle_r	knee_angle_r_beta	ankle_angle_r	subtalar_angle_r	mtp_angle_r	hip_flexion_l	hip_adduction_l	hip_rotation_l	knee_angle_l	knee_angle_l_beta	ankle_angle_l	subtalar_angle_l	mtp_angle_l	L5_S1_Flex_Ext	L5_S1_Lat_Bending	L5_S1_axial_rotation	L4_L5_Flex_Ext	L4_L5_Lat_Bending	L4_L5_axial_rotation	L3_L4_Flex_Ext	L3_L4_Lat_Bending	L3_L4_axial_rotation	L2_L3_Flex_Ext	L2_L3_Lat_Bending	L2_L3_axial_rotation	L1_L2_Flex_Ext	L1_L2_Lat_Bending	L1_L2_axial_rotation	L1_T12_Flex_Ext	L1_T12_Lat_Bending	L1_T12_axial_rotation	Abs_r3	Abs_r2	Abs_r1	Abs_t1	Abs_t2	neck_flexion	neck_bending	neck_rotation	arm_flex_r	arm_add_r	arm_rot_r	elbow_flex_r	pro_sup_r	wrist_flex_r	wrist_dev_r	arm_flex_l	arm_add_l	arm_rot_l	elbow_flex_l	pro_sup_l	wrist_flex_l	wrist_dev_l
      7.06666667	     -1.81204349	     -4.99797869	    114.94046898	      0.26854429	      0.78067174	      0.83999089	     -4.59881258	     -1.39408710	     -2.48350693	      0.59624346	      0.01040641	     30.77699105	      2.49706960	      0.00000000	     -0.57600672	     -1.43984694	      5.09080312	      1.56186623	      0.02725971	     27.41208354	      9.39294850	      0.00000000	      0.17017414	     -0.06939647	      2.72097642	      0.31603040	     -0.09229730	      2.89103745	      0.27957910	     -0.16873057	      2.89103745	      0.19449203	     -0.16873057	      2.38085437	      0.15802371	     -0.14151328	      2.21079334	      0.09723750	     -0.10749513	      2.04073232	      1.21553687	     -0.78502672	     15.13325457	      0.00000000	      0.00000000	     20.82665077	     -2.43396984	     13.01534635	      0.13163431	    -15.34662477	     15.53602471	    124.20970624	     86.00829794	      8.55552007	     19.80556196	     -5.89086180	    -14.06319011	     11.77095519	    116.65152848	     74.57692756	    -10.41869037	     -6.71240473
      7.08333333	     -1.70680071	     -5.05521530	    114.93639530	      0.26806263	      0.78061981	      0.84007188	     -4.50328735	     -1.33659620	     -2.06636284	      0.60434699	      0.01054784	     30.61881798	      2.00865085	      0.00000000	     -0.45933706	     -1.48674748	      5.49741557	      1.59519679	      0.02784144	     27.56527769	      8.88243999	      0.00000000	      0.17705547	     -0.06384013	      2.70533519	      0.32880971	     -0.08490738	      2.87441864	      0.29088442	     -0.15522090	      2.87441864	      0.20235669	     -0.15522090	      2.36716829	      0.16441371	     -0.13018280	      2.19808484	      0.10116949	     -0.09888837	      2.02900139	      1.26468948	     -0.72217236	     15.04626274	      0.00000000	      0.00000000	     20.67740939	     -2.14625032	     12.68779123	      0.28847604	    -15.95653109	     15.95469882	    124.48159688	     86.06846569	      7.84117329	     18.88647157	     -6.05676975	    -13.81068355	     11.28170813	    116.92689166	     77.97061023	    -10.98161780	     -5.74097162
      7.10000000	     -1.64508208	     -5.08387573	    114.89785294	      0.26771744	      0.78063769	      0.84001242	     -4.45703218	     -1.29869466	     -1.53187991	      0.60780649	      0.01060822	     30.41827993	      1.31742737	      0.00000000	     -0.40723417	     -1.52840974	      5.11669454	      1.63153092	      0.02847559	     27.78436921	      9.29893386	      0.00000000	      0.17113460	     -0.06133298	      2.67656844	      0.31781406	     -0.08157286	      2.84385397	      0.28115703	     -0.14912500	      2.84385397	      0.19558973	     -0.14912500	      2.34199739	      0.15891559	     -0.12507021	      2.17471186	      0.09778631	     -0.09500478	      2.00742633	      1.22239733	     -0.69381092	     14.88627070	      0.00000000	      0.00000000	     20.60315808	     -2.09101544	     12.18368322	      0.47276211	    -16.24521808	     16.30188903	    124.71794592	     85.99593350	      6.64465251	     18.41300064	     -6.34380097	    -13.51726130	     10.59797624	    117.23376946	     80.10251985	    -10.70420552	     -4.99096088
      7.11666667	     -1.59030870	     -5.24964547	    114.84592902	      0.26753413	      0.78045325	      0.83973880	     -4.28715796	     -1.31980973	     -1.82270800	      0.61132779	      0.01066968	     30.47227029	      1.70235659	      0.00000000	     -0.21789528	     -1.51876964	      4.65034369	      1.71004227	      0.02984587	     27.93368551	      9.86427643	      0.00000000	      0.17870694	     -0.06754704	      2.64801251	      0.33187665	     -0.08983757	      2.81351329	      0.29359763	     -0.16423388	      2.81351329	      0.20424416	     -0.16423388	      2.31701095	      0.16594726	     -0.13774193	      2.15151016	      0.10211314	     -0.10463037	      1.98600938	      1.27648578	     -0.76410565	     14.72745117	      0.00000000	      0.00000000	     20.68721447	     -2.08715678	     11.80609659	      0.41920797	    -16.00918915	     16.26712498	    125.00407879	     86.29242655	      5.64132961	     18.49521147	     -6.75296970	    -13.41156504	     10.09309008	    117.60441698	     81.05912581	    -10.76097095	     -4.92784765
      7.13333333	     -1.64439939	     -5.34604101	    114.87926340	      0.26738819	      0.78036828	      0.83940930	     -4.24476709	     -1.40551225	     -1.82218484	      0.61594813	      0.01075032	     30.49607274	      1.66448940	      0.00000000	     -0.15227643	     -1.44414224	      4.03537937	      1.75255013	      0.03058777	     28.03893089	     10.63021667	      0.00000000	      0.16955762	     -0.08124640	      2.57483616	      0.31488545	     -0.10805771	      2.73576342	      0.27856621	     -0.19754249	      2.73576342	      0.19378740	     -0.19754249	      2.25298164	      0.15745121	     -0.16567766	      2.09205438	      0.09688522	     -0.12585067	      1.93112712	      1.21113312	     -0.91907550	     14.32046625	      0.00000000	      0.00000000	     20.84340326	     -2.18424963	     11.49356139	      0.42395506	    -15.52059915	     16.33179893	    125.06455826	     86.32539172	      4.72256864	     18.45333066	     -7.30094702	    -13.35285305	      9.29387162	    117.95400723	     81.90926142	    -10.34097915	     -5.01729870
      7.15000000	     -1.68402115	     -5.53535800	    114.94780267	      0.26725053	      0.78007927	      0.83895011	     -4.11050993	     -1.50900974	     -2.58077790	      0.61709407	      0.01077032	     30.73114622	      2.48971615	      0.00000000	     -0.00108731	     -1.34993910	      3.74110394	      1.78111311	      0.03108629	     28.00477070	     11.14022130	      0.00000000	      0.17675565	     -0.09789969	      2.49621604	      0.32825292	     -0.13020658	      2.65222954	      0.29039186	     -0.23803330	      2.65222954	      0.20201403	     -0.23803330	      2.18418904	      0.16413530	     -0.19963704	      2.02817553	      0.10099818	     -0.15164661	      1.87216203	      1.26254793	     -1.10746082	     13.88320475	      0.00000000	      0.00000000	     21.14704610	     -2.34175122	     11.24235404	      0.22771974	    -14.79886128	     16.27181651	    125.08198616	     86.46593061	      4.55285334	     18.43377372	     -8.02976759	    -13.37986403	      8.53801058	    118.21974609	     81.17680701	     -9.78634001	     -5.97855824
      7.16666667	     -1.75455540	     -5.67963411	    114.94782404	      0.26719915	      0.77974459	      0.83845655	     -4.02557730	     -1.61914795	     -2.24178464	      0.61640462	      0.01075829	     30.76359495	      1.97327267	      0.00000000	      0.01394462	     -1.21838261	      5.00092003	      1.66026701	      0.02897713	     27.62166586	      9.55267261	      0.00000000	      0.17585178	     -0.11390275	      2.40699679	      0.32657434	     -0.15149066	      2.55743409	      0.28890689	     -0.27694315	      2.55743409	      0.20098100	     -0.27694315	      2.10612219	      0.16329596	     -0.23227049	      1.95568489	      0.10048171	     -0.17643536	      1.80524759	      1.25609167	     -1.28849072	     13.38699404	      0.00000000	      0.00000000	     21.62957562	     -2.45094334	     11.23048164	      0.14952795	    -14.12748164	     16.37588529	    125.03936418	     85.82290402	      5.34288266	     18.80356997	     -8.91239528	    -13.46310826	      7.51273403	    118.57076850	     81.44976256	     -9.22080847	     -6.74609679
      7.18333333	     -1.79212874	     -5.85948721	    114.95737394	      0.26722451	      0.77936504	      0.83807315	     -3.88409509	     -1.72335061	     -2.83657142	      0.61380638	      0.01071294	     31.02147634	      2.75841580	      0.00000000	      0.14352318	     -1.13075451	      4.87361875	      1.65333875	      0.02885620	     27.41978565	      9.85661897	      0.00000000	      0.18399964	     -0.12743001	      2.33678308	      0.34170574	     -0.16948192	      2.48283202	      0.30229302	     -0.30983333	      2.48283202	      0.21029319	     -0.30983333	      2.04468520	      0.17086207	     -0.25985528	      1.89863625	      0.10513740	     -0.19738909	      1.75258731	      1.31429106	     -1.44151378	     12.99648646	      0.00000000	      0.00000000	     22.16139450	     -2.45045638	     11.47273782	     -0.02567970	    -13.60051068	     16.58968500	    125.06295858	     85.26707714	      6.19076928	     19.06668219	     -9.65741870	    -13.79283320	      7.11442561	    118.69480669	     78.97053267	     -8.96487580	     -8.68509919
      7.20000000	     -1.82017270	     -5.98214165	    114.95183682	      0.26712710	      0.77901534	      0.83773439	     -3.80522447	     -1.78866879	     -1.82231965	      0.59464754	      0.01037856	     30.83632614	      1.29692221	      0.00000000	      0.15499738	     -1.04803755	      6.24347242	      1.50879015	      0.02633336	     26.91250542	      8.19052393	      0.00000000	      0.19082513	     -0.14000287	      2.29653240	      0.35438135	     -0.18620382	      2.44006567	      0.31350661	     -0.34040298	      2.44006567	      0.21809404	     -0.34040298	      2.00946585	      0.17720022	     -0.28549385	      1.86593257	      0.10903748	     -0.21686445	      1.72239930	      1.36304484	     -1.58374047	     12.77262424	      0.00000000	      0.00000000	     22.64272838	     -2.40966050	     11.44690490	     -0.21852300	    -13.24552007	     16.58054215	    125.05161671	     84.19449162	      8.35212765	     19.22623832	    -10.29313466	    -14.07643989	      6.77323076	    118.87653985	     77.42181137	     -8.68083887	     -9.90437727
      7.21666667	     -1.81137673	     -6.07957477	    114.94582654	      0.26702921	      0.77878319	      0.83758330	     -3.72195432	     -1.83149872	     -3.26965631	      0.57683712	      0.01006771	     31.13537737	      3.08158283	      0.00000000	      0.24997780	     -1.03722374	      5.53741376	      1.51729322	      0.02648176	     26.83677719	      9.32164069	      0.00000000	      0.19836400	     -0.14510648	      2.26776479	      0.36838179	     -0.19299162	      2.40950009	      0.32589222	     -0.35281190	      2.40950009	      0.22671022	     -0.35281190	      1.98429419	      0.18420081	     -0.29590114	      1.84255890	      0.11334519	     -0.22476994	      1.70082360	      1.41689424	     -1.64147356	     12.61262746	      0.00000000	      0.00000000	     22.98551923	     -2.13829460	     11.86670279	     -0.28386793	    -13.25248435	     17.00473346	    125.15390511	     82.59441146	      9.16939997	     19.66462195	    -10.72168746	    -14.38143180	      6.88307705	    118.95654396	     74.59920740	     -8.75462752	    -11.42217748
      7.23333333	     -1.78729190	     -6.08706287	    114.91473713	      0.26689038	      0.77867656	      0.83744935	     -3.71850637	     -1.80190648	     -0.94080112	      0.57879073	      0.01010180	     30.52748219	     -0.16919942	      0.00000000	      0.15803221	     -1.03759932	      7.57539272	      1.32289497	      0.02308887	     26.25973852	      6.72104904	      0.00000000	      0.19831977	     -0.14575761	      2.27750891	      0.36829965	     -0.19385762	      2.41985322	      0.32581955	     -0.35439506	      2.41985322	      0.22665967	     -0.35439506	      1.99282030	      0.18415974	     -0.29722892	      1.85047599	      0.11331992	     -0.22577854	      1.70813168	      1.41657829	     -1.64883926	     12.66682130	      0.00000000	      0.00000000	     23.24726654	     -1.97840098	     11.93968065	     -0.37551603	    -13.32659922	     17.09127721	    125.21254450	     81.12769209	     10.54793115	     19.91630480	    -10.78598768	    -14.65404014	      7.18287170	    119.05498341	     73.16653987	     -9.03567842	    -11.74655109
